<svg width="39" height="39" viewBox="0 0 39 39" fill="none" xmlns="http://www.w3.org/2000/svg">
<path d="M8.53125 18.2812H32.9062C33.2295 18.2812 33.5395 18.4097 33.768 18.6382C33.9966 18.8668 34.125 19.1768 34.125 19.5C34.125 19.8232 33.9966 20.1332 33.768 20.3618C33.5395 20.5903 33.2295 20.7188 32.9062 20.7188H8.53125C8.20802 20.7188 7.89802 20.5903 7.66946 20.3618C7.4409 20.1332 7.3125 19.8232 7.3125 19.5C7.3125 19.1768 7.4409 18.8668 7.66946 18.6382C7.89802 18.4097 8.20802 18.2812 8.53125 18.2812Z" fill="black"/>
<path d="M9.03603 19.4999L19.1443 29.6058C19.3732 29.8347 19.5017 30.145 19.5017 30.4687C19.5017 30.7923 19.3732 31.1027 19.1443 31.3316C18.9155 31.5604 18.6051 31.689 18.2815 31.689C17.9578 31.689 17.6474 31.5604 17.4186 31.3316L6.44985 20.3628C6.33635 20.2496 6.2463 20.1151 6.18486 19.9671C6.12342 19.819 6.0918 19.6603 6.0918 19.4999C6.0918 19.3396 6.12342 19.1809 6.18486 19.0328C6.2463 18.8848 6.33635 18.7503 6.44985 18.6371L17.4186 7.66833C17.6474 7.43948 17.9578 7.31091 18.2815 7.31091C18.6051 7.31091 18.9155 7.43948 19.1443 7.66833C19.3732 7.89718 19.5017 8.20756 19.5017 8.5312C19.5017 8.85484 19.3732 9.16523 19.1443 9.39408L9.03603 19.4999Z" fill="black"/>
</svg>
