<svg width="56" height="59" viewBox="0 0 56 59" fill="none" xmlns="http://www.w3.org/2000/svg">
<path d="M20.1069 58.0625C21.246 59.2657 23.1448 59.3176 24.348 58.1785L43.9548 39.6158C45.1579 38.4767 45.2099 36.578 44.0708 35.3748C42.9317 34.1716 41.0329 34.1197 39.8297 35.2588L22.4015 51.7589L5.9013 34.3307C4.7622 33.1275 2.86341 33.0756 1.66024 34.2147C0.457073 35.3538 0.405134 37.2526 1.54423 38.4557L20.1069 58.0625ZM52.7958 0.252299C28.9568 10.7001 19.8978 19.9023 17.6146 29.775C16.502 34.5859 17.1052 39.2051 17.8213 43.4403C18.5613 47.8169 19.4012 51.7273 19.2866 55.918L25.2843 56.082C25.4194 51.1435 24.4176 46.4636 23.7374 42.4401C23.0332 38.2752 22.6375 34.6845 23.4603 31.1269C25.0477 24.2628 31.5963 16.0942 55.2042 5.7477L52.7958 0.252299Z" fill="#33577C"/>
</svg>
