<?xml version="1.0" encoding="utf-8"?>
<!-- Generator: Adobe Illustrator 24.0.1, SVG Export Plug-In . SVG Version: 6.00 Build 0)  -->
<svg version="1.1" id="Layer_1" xmlns="http://www.w3.org/2000/svg" xmlns:xlink="http://www.w3.org/1999/xlink" x="0px" y="0px"
	 viewBox="0 0 224.2 59.8" style="enable-background:new 0 0 224.2 59.8;" xml:space="preserve">
<style type="text/css">
	.st0{clip-path:url(#SVGID_2_);}
	.st1{fill:#206585;}
</style>
<g>
	<defs>
		<rect id="SVGID_1_" x="1.7" y="2.7" width="44" height="48"/>
	</defs>
	<clipPath id="SVGID_2_">
		<use xlink:href="#SVGID_1_"  style="overflow:visible;"/>
	</clipPath>
	<g class="st0">
		<path class="st1" d="M15.8,2.7c-0.5,0-1,0.1-1.5,0.3c-0.5,0.2-0.9,0.5-1.3,0.9s-0.7,0.8-0.9,1.3s-0.3,1-0.3,1.5v13.4
			c1-1.8,2.5-3.3,3.9-4.8c1.9-2.1,3.8-4.1,4.1-6.3V6.7c0-0.5-0.1-1-0.3-1.5S19,4.3,18.6,3.9S17.8,3.2,17.3,3
			C16.8,2.8,16.3,2.7,15.8,2.7z M28.7,42.8c-0.6,0-1.2-0.1-1.8-0.2c-0.6-0.1-1.1-0.3-1.7-0.5c-0.5-0.2-1.1-0.5-1.5-0.8
			c-0.5-0.3-0.9-0.7-1.4-1.1c-0.4-0.4-0.8-0.9-1.1-1.4c-0.3-0.5-0.6-1-0.8-1.5c-0.2-0.5-0.4-1.1-0.5-1.7c-0.1-0.6-0.2-1.2-0.2-1.8
			v-2.2c-1.3,0.8-3.7,4.1-7.8,4.8c1,7,6.9,13.2,14.6,14.2c4.2-1,6.6-3.8,7.9-6.1c1-1.9,1.7-3.9,2-6c-0.4,0.7-0.9,1.3-1.4,1.8
			c-0.6,0.5-1.2,1-1.8,1.4c-0.7,0.4-1.4,0.7-2.1,0.9C30.3,42.7,29.5,42.8,28.7,42.8z M28.7,16.9c-3.7,0-6.6,1-9,2.5v-6.8
			c-0.8,1.2-1.9,2.4-3.1,3.6c-2.3,2.4-4.6,4.9-4.9,8.1V26c-2,1.7-3.8,2.7-6.2,2.8c-0.5,0-1,0.1-1.5,0.4c-0.5,0.2-0.9,0.5-1.3,0.9
			c-0.4,0.4-0.6,0.8-0.8,1.3c-0.2,0.5-0.3,1-0.3,1.5c0,0.5,0.1,1,0.3,1.5c0.2,0.5,0.5,0.9,0.9,1.3c0.4,0.4,0.8,0.6,1.3,0.8
			c0.5,0.2,1,0.3,1.5,0.3c1.7,0,3.3-0.3,4.8-0.9c0,0,0,0,0.1,0c0,0,0,0,0.1,0c0.1,0,0.1,0,0.2-0.1c0.1,0,0.1,0,0.1,0
			c0.1,0,0.1-0.1,0.2-0.1l0.1,0c0,0,0.1,0,0.1-0.1c0.1,0,0.2-0.1,0.3-0.1c3.2-1.4,7.8-5.9,9-6.9l0.1,0c2.6-2.3,4.6-3.6,7.8-3.6
			c0.5,0,1.1,0,1.6,0.1c0.5,0.1,1,0.2,1.5,0.4c0.5,0.2,1,0.4,1.4,0.7c0.5,0.3,0.9,0.6,1.3,0.9c0.4,0.3,0.8,0.7,1.1,1.1
			c0.3,0.4,0.6,0.9,0.9,1.3c0.3,0.5,0.5,1,0.6,1.5c0.2,0.5,0.3,1,0.4,1.5c0,0,0,0,0,0C38.4,36,38,41,35.7,45.2
			c-1,1.9-2.7,4.1-5.4,5.5c8.6-0.8,15.4-8.1,15.4-16.9C45.7,24.5,38.1,16.9,28.7,16.9z"/>
	</g>
</g>
<g>
	<g transform="translate(139.113849, 199.874987)">
		<g>
			<path class="st1" d="M-87.9-152.8V-176h6.9v23.1H-87.9z M-84.5-179.4c-1.2,0-2.1-0.3-2.9-1c-0.7-0.7-1.1-1.5-1.1-2.6
				c0-1.1,0.4-1.9,1.1-2.6c0.8-0.7,1.7-1,2.9-1c1.2,0,2.1,0.3,2.9,1c0.7,0.7,1.1,1.5,1.1,2.6c0,1.1-0.4,1.9-1.1,2.6
				C-82.3-179.7-83.3-179.4-84.5-179.4z"/>
		</g>
	</g>
</g>
<g>
	<g transform="translate(151.011666, 199.874987)">
		<g>
			<path class="st1" d="M-83.9-152.8V-176h5.6l0.5,2.9h0.2c1-0.9,2.1-1.7,3.3-2.4c1.2-0.7,2.6-1.1,4.2-1.1c2.5,0,4.3,0.8,5.5,2.5
				c1.1,1.7,1.7,3.9,1.7,6.9v14.4h-6.9v-13.5c0-1.7-0.2-2.8-0.7-3.5c-0.4-0.6-1.2-0.9-2.2-0.9c-0.9,0-1.6,0.2-2.3,0.6
				c-0.6,0.4-1.3,0.9-2,1.7v15.6H-83.9z"/>
		</g>
	</g>
</g>
<g>
	<g transform="translate(173.267141, 199.874987)">
		<g>
			<path class="st1" d="M-76.5-152.8V-176h6.9v23.1H-76.5z M-73.1-179.4c-1.2,0-2.1-0.3-2.9-1c-0.7-0.7-1.1-1.5-1.1-2.6
				c0-1.1,0.4-1.9,1.1-2.6c0.8-0.7,1.7-1,2.9-1c1.2,0,2.1,0.3,2.9,1c0.7,0.7,1.1,1.5,1.1,2.6c0,1.1-0.4,1.9-1.1,2.6
				C-70.9-179.7-71.9-179.4-73.1-179.4z"/>
		</g>
	</g>
</g>
<g>
	<g transform="translate(185.164959, 199.874987)">
		<g>
			<path class="st1" d="M-69.9-143.8c-0.7,0-1.3,0-1.8-0.1c-0.5-0.1-1-0.2-1.4-0.4l1.2-5.2c0.2,0.1,0.5,0.1,0.8,0.2
				c0.3,0.1,0.5,0.1,0.8,0.1c1.2,0,2-0.3,2.7-0.9c0.6-0.6,1.1-1.3,1.4-2.2l0.3-1.2L-75-176h6.9l3.3,9.9c0.3,1.1,0.7,2.1,0.9,3.2
				c0.3,1.1,0.6,2.2,0.9,3.4h0.2c0.3-1.1,0.5-2.2,0.8-3.3c0.3-1.1,0.5-2.2,0.8-3.3l2.8-9.9h6.6l-8,23.4c-0.6,1.5-1.1,2.7-1.8,3.9
				c-0.6,1.1-1.3,2-2.1,2.8c-0.8,0.7-1.7,1.3-2.7,1.7C-67.4-144-68.6-143.8-69.9-143.8z"/>
		</g>
	</g>
</g>
<g>
	<g transform="translate(205.635843, 199.874987)">
		<g>
			<path class="st1" d="M-59.8-152.3c-1.1,0-2-0.2-2.9-0.5c-0.8-0.4-1.6-0.9-2.2-1.5c-0.6-0.6-1-1.4-1.4-2.2
				c-0.3-0.8-0.5-1.8-0.5-2.8c0-2.4,1-4.3,3.1-5.7c2.1-1.4,5.4-2.3,9.9-2.8c-0.1-1-0.4-1.8-0.9-2.4c-0.5-0.6-1.5-0.9-2.7-0.9
				c-1,0-2,0.2-3,0.6c-1,0.4-2,0.9-3.1,1.5l-2.5-4.5c1.5-0.9,3.1-1.6,4.7-2.2c1.6-0.6,3.4-0.9,5.2-0.9c3,0,5.3,0.8,6.8,2.5
				c1.6,1.7,2.4,4.3,2.4,7.9v13.3h-5.6l-0.5-2.4h-0.2c-1,0.9-2,1.6-3.1,2.1C-57.3-152.5-58.5-152.3-59.8-152.3z M-57.5-157.6
				c0.8,0,1.4-0.2,2-0.5c0.6-0.3,1.1-0.8,1.8-1.5v-4c-2.4,0.3-4.1,0.8-5,1.5c-0.9,0.7-1.4,1.4-1.4,2.3c0,0.8,0.2,1.3,0.7,1.7
				C-59-157.8-58.3-157.6-57.5-157.6z"/>
		</g>
	</g>
</g>
<g>
	<g transform="translate(226.316677, 199.874987)">
		<g>
			<path class="st1" d="M-58.8-152.8V-176h5.6l0.5,3h0.2c1-1,2-1.8,3.1-2.5c1.1-0.7,2.4-1.1,3.9-1.1c1.6,0,3,0.3,4,1
				c1,0.7,1.8,1.6,2.4,2.9c1-1.1,2.1-2,3.2-2.7c1.1-0.8,2.5-1.1,4-1.1c2.5,0,4.3,0.8,5.5,2.5c1.2,1.7,1.8,3.9,1.8,6.8v14.4h-6.9
				v-13.5c0-1.7-0.2-2.8-0.7-3.5c-0.4-0.6-1.2-0.9-2.2-0.9c-1.2,0-2.5,0.8-4,2.3v15.6h-6.9v-13.5c0-1.7-0.2-2.8-0.7-3.5
				c-0.4-0.6-1.2-0.9-2.2-0.9c-1.2,0-2.5,0.8-3.9,2.3v15.6H-58.8z"/>
		</g>
	</g>
</g>
<g>
	<g transform="translate(258.544898, 199.874987)">
		<g>
			<path class="st1" d="M-44.1-152.3c-1.2,0-2.2-0.4-3-1.2c-0.8-0.8-1.2-1.9-1.2-3.1c0-1.3,0.4-2.3,1.2-3.1c0.8-0.8,1.8-1.3,3-1.3
				c1.2,0,2.2,0.4,3,1.3c0.8,0.8,1.2,1.9,1.2,3.1c0,1.2-0.4,2.2-1.2,3.1C-41.9-152.7-42.9-152.3-44.1-152.3z"/>
		</g>
	</g>
</g>
</svg>
