<svg xmlns="http://www.w3.org/2000/svg" xmlns:xlink="http://www.w3.org/1999/xlink" width="500" zoomAndPan="magnify" viewBox="0 0 375 374.999991" height="500" preserveAspectRatio="xMidYMid meet" version="1.0"><path fill="rgb(12.548828%, 39.608765%, 52.159119%)" d="M 324.582031 80.777344 L 210.289062 14.785156 C 208.507812 13.761719 206.667969 12.859375 204.773438 12.078125 C 202.875 11.292969 200.933594 10.636719 198.949219 10.109375 C 196.96875 9.578125 194.957031 9.179688 192.921875 8.914062 C 190.886719 8.648438 188.84375 8.515625 186.789062 8.515625 C 184.738281 8.515625 182.695312 8.648438 180.65625 8.914062 C 178.621094 9.179688 176.613281 9.578125 174.628906 10.109375 C 172.648438 10.636719 170.707031 11.292969 168.808594 12.078125 C 166.910156 12.859375 165.070312 13.761719 163.292969 14.785156 L 49 80.777344 C 47.222656 81.804688 45.523438 82.945312 43.894531 84.195312 C 42.269531 85.449219 40.730469 86.800781 39.277344 88.253906 C 37.828125 89.703125 36.480469 91.246094 35.230469 92.875 C 33.980469 94.503906 32.84375 96.207031 31.816406 97.984375 C 30.789062 99.761719 29.882812 101.597656 29.097656 103.492188 C 28.3125 105.390625 27.652344 107.328125 27.117188 109.3125 C 26.585938 111.292969 26.183594 113.300781 25.914062 115.335938 C 25.640625 117.371094 25.503906 119.414062 25.5 121.46875 L 25.5 140.675781 L 217.980469 140.675781 C 218.753906 140.675781 219.519531 140.734375 220.285156 140.847656 C 221.046875 140.960938 221.796875 141.128906 222.535156 141.355469 C 223.273438 141.582031 223.992188 141.859375 224.691406 142.191406 C 225.386719 142.523438 226.054688 142.90625 226.695312 143.339844 C 227.335938 143.769531 227.941406 144.246094 228.511719 144.765625 C 229.078125 145.289062 229.609375 145.847656 230.09375 146.449219 C 230.578125 147.050781 231.019531 147.679688 231.410156 148.347656 C 231.804688 149.011719 232.144531 149.703125 232.433594 150.417969 C 232.722656 151.132812 232.957031 151.867188 233.140625 152.617188 C 233.320312 153.367188 233.445312 154.128906 233.511719 154.894531 C 233.582031 155.664062 233.589844 156.433594 233.542969 157.207031 C 233.496094 157.976562 233.394531 158.738281 233.234375 159.496094 C 233.074219 160.25 232.859375 160.988281 232.589844 161.710938 C 232.320312 162.4375 232 163.136719 231.625 163.8125 C 231.253906 164.488281 230.832031 165.132812 230.359375 165.746094 C 229.890625 166.355469 229.378906 166.933594 228.824219 167.46875 C 227.347656 168.890625 225.660156 169.980469 223.757812 170.742188 C 221.851562 171.503906 219.878906 171.878906 217.828125 171.867188 L 122.824219 171.867188 C 121.90625 171.867188 120.996094 171.953125 120.09375 172.132812 C 119.191406 172.3125 118.316406 172.578125 117.464844 172.929688 C 116.617188 173.28125 115.808594 173.710938 115.042969 174.222656 C 114.28125 174.730469 113.570312 175.3125 112.921875 175.960938 C 112.273438 176.613281 111.691406 177.320312 111.179688 178.082031 C 110.667969 178.847656 110.238281 179.65625 109.886719 180.503906 C 109.535156 181.355469 109.269531 182.230469 109.089844 183.132812 C 108.910156 184.03125 108.820312 184.945312 108.820312 185.863281 L 108.820312 251.421875 C 108.820312 252.34375 108.910156 253.253906 109.089844 254.15625 C 109.269531 255.058594 109.535156 255.933594 109.886719 256.78125 C 110.238281 257.632812 110.667969 258.4375 111.179688 259.203125 C 111.691406 259.96875 112.269531 260.675781 112.921875 261.324219 C 113.570312 261.976562 114.277344 262.558594 115.042969 263.066406 C 115.808594 263.578125 116.617188 264.011719 117.464844 264.363281 C 118.316406 264.714844 119.191406 264.980469 120.09375 265.160156 C 120.996094 265.339844 121.90625 265.429688 122.824219 265.429688 L 217.980469 265.429688 C 224.328125 265.480469 230.417969 264.253906 236.25 261.746094 C 239.027344 260.566406 241.667969 259.128906 244.167969 257.441406 C 246.667969 255.75 248.984375 253.835938 251.113281 251.699219 C 253.246094 249.558594 255.152344 247.238281 256.835938 244.730469 C 258.519531 242.226562 259.945312 239.582031 261.117188 236.800781 C 263.601562 231.003906 264.828125 224.953125 264.796875 218.648438 C 264.792969 212.933594 263.789062 207.398438 261.789062 202.042969 C 259.777344 196.617188 256.832031 191.753906 252.949219 187.457031 C 256.816406 183.15625 259.75 178.296875 261.753906 172.867188 C 263.753906 167.515625 264.757812 161.980469 264.761719 156.265625 C 264.804688 149.964844 263.589844 143.914062 261.117188 138.113281 C 259.945312 135.328125 258.519531 132.683594 256.839844 130.171875 C 255.15625 127.664062 253.25 125.335938 251.121094 123.195312 C 248.988281 121.054688 246.671875 119.136719 244.171875 117.445312 C 241.667969 115.75 239.027344 114.3125 236.25 113.128906 C 230.417969 110.625 224.328125 109.398438 217.980469 109.449219 L 59.074219 109.449219 C 60.359375 108.019531 61.832031 106.824219 63.496094 105.867188 L 177.835938 39.894531 C 179.203125 39.105469 180.652344 38.507812 182.175781 38.101562 C 183.703125 37.691406 185.253906 37.488281 186.835938 37.488281 C 188.414062 37.488281 189.96875 37.691406 191.492188 38.101562 C 193.019531 38.507812 194.464844 39.105469 195.835938 39.894531 L 310.128906 105.886719 C 311.496094 106.675781 312.734375 107.628906 313.851562 108.746094 C 314.96875 109.863281 315.921875 111.105469 316.710938 112.472656 C 317.5 113.839844 318.101562 115.285156 318.511719 116.8125 C 318.917969 118.335938 319.125 119.886719 319.128906 121.46875 L 319.128906 253.445312 C 319.125 255.023438 318.917969 256.578125 318.511719 258.101562 C 318.101562 259.625 317.5 261.074219 316.710938 262.441406 C 315.921875 263.808594 314.96875 265.050781 313.851562 266.167969 C 312.734375 267.285156 311.496094 268.238281 310.128906 269.027344 L 195.789062 335.015625 C 194.421875 335.804688 192.972656 336.402344 191.449219 336.808594 C 189.921875 337.21875 188.371094 337.421875 186.789062 337.421875 C 185.210938 337.421875 183.660156 337.21875 182.132812 336.808594 C 180.605469 336.402344 179.160156 335.804688 177.789062 335.015625 L 63.496094 269.027344 C 62.136719 268.234375 60.898438 267.28125 59.789062 266.160156 C 58.675781 265.042969 57.726562 263.800781 56.941406 262.433594 C 56.15625 261.066406 55.558594 259.621094 55.152344 258.097656 C 54.746094 256.574219 54.542969 255.023438 54.542969 253.445312 L 54.542969 171.867188 L 25.5 171.867188 L 25.5 253.445312 C 25.503906 255.5 25.640625 257.542969 25.914062 259.578125 C 26.183594 261.613281 26.585938 263.621094 27.117188 265.601562 C 27.652344 267.585938 28.3125 269.523438 29.097656 271.417969 C 29.882812 273.316406 30.789062 275.152344 31.816406 276.929688 C 32.84375 278.707031 33.980469 280.410156 35.230469 282.039062 C 36.480469 283.667969 37.828125 285.207031 39.277344 286.660156 C 40.730469 288.113281 42.269531 289.464844 43.894531 290.71875 C 45.523438 291.96875 47.222656 293.109375 49 294.136719 L 163.292969 360.128906 C 165.070312 361.152344 166.910156 362.054688 168.808594 362.835938 C 170.707031 363.621094 172.644531 364.277344 174.628906 364.808594 C 176.613281 365.335938 178.621094 365.734375 180.65625 366.003906 C 182.691406 366.269531 184.738281 366.402344 186.789062 366.402344 C 188.84375 366.402344 190.886719 366.269531 192.921875 366.003906 C 194.957031 365.734375 196.96875 365.335938 198.953125 364.808594 C 200.933594 364.277344 202.875 363.621094 204.773438 362.835938 C 206.671875 362.054688 208.507812 361.152344 210.289062 360.128906 L 324.582031 294.136719 C 326.355469 293.109375 328.058594 291.96875 329.683594 290.71875 C 331.3125 289.464844 332.851562 288.113281 334.300781 286.660156 C 335.75 285.207031 337.101562 283.667969 338.351562 282.039062 C 339.597656 280.410156 340.738281 278.707031 341.765625 276.929688 C 342.789062 275.152344 343.695312 273.316406 344.484375 271.417969 C 345.269531 269.523438 345.929688 267.585938 346.460938 265.601562 C 346.996094 263.621094 347.398438 261.613281 347.667969 259.578125 C 347.9375 257.542969 348.074219 255.5 348.078125 253.445312 L 348.078125 121.46875 C 348.074219 119.414062 347.9375 117.371094 347.667969 115.335938 C 347.398438 113.300781 346.996094 111.292969 346.460938 109.3125 C 345.929688 107.328125 345.269531 105.390625 344.484375 103.492188 C 343.695312 101.597656 342.789062 99.761719 341.765625 97.984375 C 340.738281 96.207031 339.597656 94.503906 338.351562 92.875 C 337.101562 91.246094 335.75 89.703125 334.300781 88.253906 C 332.851562 86.800781 331.3125 85.449219 329.683594 84.195312 C 328.058594 82.945312 326.355469 81.804688 324.582031 80.777344 Z M 229.003906 229.671875 C 227.5625 231.160156 225.882812 232.300781 223.964844 233.09375 C 222.050781 233.890625 220.054688 234.269531 217.980469 234.238281 L 140.007812 234.238281 L 140.007812 203.046875 L 217.980469 203.046875 C 218.746094 203.046875 219.507812 203.105469 220.269531 203.21875 C 221.027344 203.332031 221.773438 203.5 222.503906 203.722656 C 223.238281 203.945312 223.953125 204.222656 224.644531 204.550781 C 225.335938 204.878906 226.003906 205.253906 226.640625 205.679688 C 227.277344 206.105469 227.878906 206.578125 228.449219 207.09375 C 229.015625 207.609375 229.542969 208.160156 230.027344 208.753906 C 230.515625 209.347656 230.953125 209.972656 231.347656 210.628906 C 231.742188 211.289062 232.085938 211.972656 232.378906 212.679688 C 232.671875 213.386719 232.914062 214.113281 233.097656 214.855469 C 233.285156 215.601562 233.414062 216.355469 233.492188 217.117188 C 233.566406 217.878906 233.585938 218.644531 233.546875 219.410156 C 233.511719 220.175781 233.417969 220.933594 233.265625 221.6875 C 233.117188 222.4375 232.914062 223.175781 232.65625 223.898438 C 232.398438 224.621094 232.089844 225.316406 231.726562 225.996094 C 231.367188 226.671875 230.957031 227.316406 230.5 227.933594 C 230.046875 228.550781 229.546875 229.128906 229.003906 229.671875 Z M 229.003906 229.671875 " fill-opacity="1" fill-rule="nonzero"/></svg>